<svg width="72" height="48" viewBox="0 0 72 48" fill="none" xmlns="http://www.w3.org/2000/svg">
<path d="M0 10.8715C0 7.0661 0 5.16341 0.740575 3.70995C1.392 2.43146 2.43146 1.392 3.70995 0.740575C5.16341 0 7.0661 0 10.8715 0H60.1839C63.9893 0 65.892 0 67.3454 0.740575C68.6239 1.392 69.6634 2.43146 70.3148 3.70995C71.0554 5.16341 71.0554 7.0661 71.0554 10.8715V36.8689C71.0554 40.6742 71.0554 42.5769 70.3148 44.0304C69.6634 45.3089 68.6239 46.3483 67.3454 46.9998C65.892 47.7403 63.9893 47.7403 60.1839 47.7403H10.8715C7.0661 47.7403 5.16341 47.7403 3.70995 46.9998C2.43146 46.3483 1.392 45.3089 0.740575 44.0304C0 42.5769 0 40.6742 0 36.8689V10.8715Z" fill="#1783FF"/>
<rect x="25.7461" y="8.88171" width="8.88192" height="13.3229" fill="white"/>
<rect x="52.3926" y="8.88171" width="8.88192" height="13.3229" fill="white"/>
</svg>
